%TF.GenerationSoftware,KiCad,Pcbnew,9.0.3*%
%TF.CreationDate,2025-07-28T15:14:52+05:30*%
%TF.ProjectId,RC_CAR_TEST_PCB,52435f43-4152-45f5-9445-53545f504342,rev?*%
%TF.SameCoordinates,Original*%
%TF.FileFunction,Copper,L1,Top*%
%TF.FilePolarity,Positive*%
%FSLAX46Y46*%
G04 Gerber Fmt 4.6, Leading zero omitted, Abs format (unit mm)*
G04 Created by KiCad (PCBNEW 9.0.3) date 2025-07-28 15:14:52*
%MOMM*%
%LPD*%
G01*
G04 APERTURE LIST*
G04 Aperture macros list*
%AMRoundRect*
0 Rectangle with rounded corners*
0 $1 Rounding radius*
0 $2 $3 $4 $5 $6 $7 $8 $9 X,Y pos of 4 corners*
0 Add a 4 corners polygon primitive as box body*
4,1,4,$2,$3,$4,$5,$6,$7,$8,$9,$2,$3,0*
0 Add four circle primitives for the rounded corners*
1,1,$1+$1,$2,$3*
1,1,$1+$1,$4,$5*
1,1,$1+$1,$6,$7*
1,1,$1+$1,$8,$9*
0 Add four rect primitives between the rounded corners*
20,1,$1+$1,$2,$3,$4,$5,0*
20,1,$1+$1,$4,$5,$6,$7,0*
20,1,$1+$1,$6,$7,$8,$9,0*
20,1,$1+$1,$8,$9,$2,$3,0*%
G04 Aperture macros list end*
%TA.AperFunction,ComponentPad*%
%ADD10RoundRect,0.250001X-0.949999X0.949999X-0.949999X-0.949999X0.949999X-0.949999X0.949999X0.949999X0*%
%TD*%
%TA.AperFunction,ComponentPad*%
%ADD11C,2.400000*%
%TD*%
%TA.AperFunction,ComponentPad*%
%ADD12R,1.700000X1.700000*%
%TD*%
%TA.AperFunction,ComponentPad*%
%ADD13C,1.700000*%
%TD*%
%TA.AperFunction,ComponentPad*%
%ADD14C,1.400000*%
%TD*%
%TA.AperFunction,ComponentPad*%
%ADD15RoundRect,0.250001X-1.099999X1.099999X-1.099999X-1.099999X1.099999X-1.099999X1.099999X1.099999X0*%
%TD*%
%TA.AperFunction,ComponentPad*%
%ADD16C,2.700000*%
%TD*%
%TA.AperFunction,ComponentPad*%
%ADD17RoundRect,0.250001X0.949999X-0.949999X0.949999X0.949999X-0.949999X0.949999X-0.949999X-0.949999X0*%
%TD*%
%TA.AperFunction,ViaPad*%
%ADD18C,0.800000*%
%TD*%
%TA.AperFunction,Conductor*%
%ADD19C,0.300000*%
%TD*%
%TA.AperFunction,Conductor*%
%ADD20C,0.500000*%
%TD*%
G04 APERTURE END LIST*
D10*
%TO.P,J6,1,Pin_1*%
%TO.N,/AO2_1*%
X106732500Y-73750000D03*
D11*
%TO.P,J6,2,Pin_2*%
%TO.N,/AO1_1*%
X106732500Y-77250000D03*
%TD*%
D12*
%TO.P,J3,1,Pin_1*%
%TO.N,VCC*%
X116500000Y-154250000D03*
D13*
%TO.P,J3,2,Pin_2*%
X119040000Y-154250000D03*
%TO.P,J3,3,Pin_3*%
%TO.N,GND*%
X121580000Y-154250000D03*
%TO.P,J3,4,Pin_4*%
%TO.N,/AO1_2*%
X124120000Y-154250000D03*
%TO.P,J3,5,Pin_5*%
%TO.N,/AO2_2*%
X126660000Y-154250000D03*
%TO.P,J3,6,Pin_6*%
%TO.N,/BO2_2*%
X129200000Y-154250000D03*
%TO.P,J3,7,Pin_7*%
%TO.N,/BO1_2*%
X131740000Y-154250000D03*
%TO.P,J3,8,Pin_8*%
%TO.N,GND*%
X134280000Y-154250000D03*
%TO.P,J3,9,Pin_8*%
X134280000Y-138250000D03*
%TO.P,J3,10,Pin_7*%
%TO.N,/PWMB_2*%
X131740000Y-138250000D03*
%TO.P,J3,11,Pin_6*%
%TO.N,/BIN2_2*%
X129200000Y-138250000D03*
%TO.P,J3,12,Pin_5*%
%TO.N,/BIN1_2*%
X126660000Y-138250000D03*
%TO.P,J3,13,Pin_4*%
%TO.N,/STBY_2*%
X124120000Y-138250000D03*
%TO.P,J3,14,Pin_3*%
%TO.N,/AIN1_2*%
X121580000Y-138250000D03*
%TO.P,J3,15,Pin_2*%
%TO.N,/AIN2_2*%
X119040000Y-138250000D03*
D12*
%TO.P,J3,16,Pin_1*%
%TO.N,/PWMA_2*%
X116500000Y-138250000D03*
%TD*%
D14*
%TO.P,R1,1*%
%TO.N,+3.3V*%
X138250000Y-111390000D03*
%TO.P,R1,2*%
%TO.N,/NRF_IRQ*%
X138250000Y-106310000D03*
%TD*%
D12*
%TO.P,J2,1,Pin_1*%
%TO.N,VCC*%
X132250000Y-62150000D03*
D13*
%TO.P,J2,2,Pin_2*%
X129710000Y-62150000D03*
%TO.P,J2,3,Pin_3*%
%TO.N,GND*%
X127170000Y-62150000D03*
%TO.P,J2,4,Pin_4*%
%TO.N,/AO1_1*%
X124630000Y-62150000D03*
%TO.P,J2,5,Pin_5*%
%TO.N,/AO2_1*%
X122090000Y-62150000D03*
%TO.P,J2,6,Pin_6*%
%TO.N,/BO2_1*%
X119550000Y-62150000D03*
%TO.P,J2,7,Pin_7*%
%TO.N,/BO1_1*%
X117010000Y-62150000D03*
%TO.P,J2,8,Pin_8*%
%TO.N,GND*%
X114470000Y-62150000D03*
%TO.P,J2,9,Pin_8*%
X114470000Y-78150000D03*
%TO.P,J2,10,Pin_7*%
%TO.N,/PWMB_1*%
X117010000Y-78150000D03*
%TO.P,J2,11,Pin_6*%
%TO.N,/BIN2_1*%
X119550000Y-78150000D03*
%TO.P,J2,12,Pin_5*%
%TO.N,/BIN1_1*%
X122090000Y-78150000D03*
%TO.P,J2,13,Pin_4*%
%TO.N,/STBY_1*%
X124630000Y-78150000D03*
%TO.P,J2,14,Pin_3*%
%TO.N,/AIN1_1*%
X127170000Y-78150000D03*
%TO.P,J2,15,Pin_2*%
%TO.N,/AIN2_1*%
X129710000Y-78150000D03*
D12*
%TO.P,J2,16,Pin_1*%
%TO.N,/PWMA_1*%
X132250000Y-78150000D03*
%TD*%
%TO.P,J1,1,Pin_1*%
%TO.N,unconnected-(J1-Pin_1-Pad1)*%
X129800000Y-130930000D03*
D13*
%TO.P,J1,2,Pin_2*%
%TO.N,unconnected-(J1-Pin_2-Pad2)*%
X129800000Y-128390000D03*
%TO.P,J1,3,Pin_3*%
%TO.N,unconnected-(J1-Pin_3-Pad3)*%
X129800000Y-125850000D03*
%TO.P,J1,4,Pin_4*%
%TO.N,unconnected-(J1-Pin_4-Pad4)*%
X129800000Y-123310000D03*
%TO.P,J1,5,Pin_5*%
%TO.N,unconnected-(J1-Pin_5-Pad5)*%
X129800000Y-120770000D03*
%TO.P,J1,6,Pin_6*%
%TO.N,unconnected-(J1-Pin_6-Pad6)*%
X129800000Y-118230000D03*
%TO.P,J1,7,Pin_7*%
%TO.N,unconnected-(J1-Pin_7-Pad7)*%
X129800000Y-115690000D03*
%TO.P,J1,8,Pin_8*%
%TO.N,unconnected-(J1-Pin_8-Pad8)*%
X129800000Y-113150000D03*
%TO.P,J1,9,Pin_9*%
%TO.N,/NRF_IRQ*%
X129800000Y-110610000D03*
%TO.P,J1,10,Pin_10*%
%TO.N,/NRF_SCK*%
X129800000Y-108070000D03*
%TO.P,J1,11,Pin_11*%
%TO.N,/NRF_MISO*%
X129800000Y-105530000D03*
%TO.P,J1,12,Pin_12*%
%TO.N,/NRF_MOSI*%
X129800000Y-102990000D03*
%TO.P,J1,13,Pin_13*%
%TO.N,/SPI1_CSS*%
X129800000Y-100450000D03*
%TO.P,J1,14,Pin_14*%
%TO.N,/NRF_CE*%
X129800000Y-97910000D03*
%TO.P,J1,15,Pin_15*%
%TO.N,/STBY_1*%
X129800000Y-95370000D03*
%TO.P,J1,16,Pin_16*%
%TO.N,/STBY_2*%
X129800000Y-92830000D03*
%TO.P,J1,17,Pin_17*%
%TO.N,unconnected-(J1-Pin_17-Pad17)*%
X129800000Y-90290000D03*
%TO.P,J1,18,Pin_18*%
%TO.N,unconnected-(J1-Pin_18-Pad18)*%
X129800000Y-87750000D03*
%TO.P,J1,19,Pin_19*%
%TO.N,GND*%
X129800000Y-85210000D03*
%TO.P,J1,20,Pin_20*%
%TO.N,VCC*%
X129800000Y-82670000D03*
%TO.P,J1,21,Pin_1*%
%TO.N,/AIN1_1*%
X114800000Y-82640000D03*
%TO.P,J1,22,Pin_2*%
%TO.N,/AIN2_1*%
X114800000Y-85180000D03*
%TO.P,J1,23,Pin_3*%
%TO.N,/BIN1_1*%
X114800000Y-87720000D03*
%TO.P,J1,24,Pin_4*%
%TO.N,/BIN2_1*%
X114800000Y-90260000D03*
%TO.P,J1,25,Pin_5*%
%TO.N,/PWMA_1*%
X114800000Y-92800000D03*
%TO.P,J1,26,Pin_6*%
%TO.N,/PWMB_1*%
X114800000Y-95340000D03*
%TO.P,J1,27,Pin_7*%
%TO.N,/PWMA_2*%
X114800000Y-97880000D03*
%TO.P,J1,28,Pin_8*%
%TO.N,/PWMB_2*%
X114800000Y-100420000D03*
%TO.P,J1,29,Pin_9*%
%TO.N,unconnected-(J1-Pin_9-Pad29)*%
X114800000Y-102960000D03*
%TO.P,J1,30,Pin_10*%
%TO.N,/AIN1_2*%
X114800000Y-105500000D03*
%TO.P,J1,31,Pin_11*%
%TO.N,/AIN2_2*%
X114800000Y-108040000D03*
%TO.P,J1,32,Pin_12*%
%TO.N,/BIN1_2*%
X114800000Y-110580000D03*
%TO.P,J1,33,Pin_13*%
%TO.N,/BIN2_2*%
X114800000Y-113120000D03*
%TO.P,J1,34,Pin_14*%
%TO.N,unconnected-(J1-Pin_14-Pad34)*%
X114800000Y-115660000D03*
%TO.P,J1,35,Pin_15*%
%TO.N,unconnected-(J1-Pin_15-Pad35)*%
X114800000Y-118200000D03*
%TO.P,J1,36,Pin_16*%
%TO.N,unconnected-(J1-Pin_16-Pad36)*%
X114800000Y-120740000D03*
%TO.P,J1,37,Pin_17*%
%TO.N,unconnected-(J1-Pin_17-Pad37)*%
X114800000Y-123280000D03*
%TO.P,J1,38,Pin_18*%
%TO.N,unconnected-(J1-Pin_18-Pad38)*%
X114800000Y-125820000D03*
%TO.P,J1,39,Pin_19*%
%TO.N,GND*%
X114800000Y-128360000D03*
D12*
%TO.P,J1,40,Pin_20*%
%TO.N,+3.3V*%
X114800000Y-130900000D03*
%TD*%
D14*
%TO.P,R2,1*%
%TO.N,+3.3V*%
X143300000Y-111390000D03*
%TO.P,R2,2*%
%TO.N,/SPI1_CSS*%
X143300000Y-106310000D03*
%TD*%
D15*
%TO.P,J5,1,Pin_1*%
%TO.N,VCC*%
X143700000Y-86692500D03*
D16*
%TO.P,J5,2,Pin_2*%
%TO.N,GND*%
X143700000Y-90652500D03*
%TD*%
D17*
%TO.P,J9,1,Pin_1*%
%TO.N,/BO1_2*%
X143750000Y-150500000D03*
D11*
%TO.P,J9,2,Pin_2*%
%TO.N,/BO2_2*%
X143750000Y-147000000D03*
%TD*%
D10*
%TO.P,J7,1,Pin_1*%
%TO.N,/AO2_2*%
X106482500Y-146750000D03*
D11*
%TO.P,J7,2,Pin_2*%
%TO.N,/AO1_2*%
X106482500Y-150250000D03*
%TD*%
D17*
%TO.P,J8,1,Pin_1*%
%TO.N,/BO1_1*%
X143750000Y-77500000D03*
D11*
%TO.P,J8,2,Pin_2*%
%TO.N,/BO2_1*%
X143750000Y-74000000D03*
%TD*%
D12*
%TO.P,J4,1,Pin_1*%
%TO.N,GND*%
X145850000Y-101100000D03*
D13*
%TO.P,J4,2,Pin_2*%
%TO.N,/NRF_CE*%
X143310000Y-101100000D03*
%TO.P,J4,3,Pin_3*%
%TO.N,/NRF_SCK*%
X140770000Y-101100000D03*
%TO.P,J4,4,Pin_4*%
%TO.N,/NRF_MISO*%
X138230000Y-101100000D03*
%TO.P,J4,5,Pin_1*%
%TO.N,/NRF_IRQ*%
X138230000Y-103640000D03*
%TO.P,J4,6,Pin_2*%
%TO.N,/NRF_MOSI*%
X140770000Y-103640000D03*
%TO.P,J4,7,Pin_3*%
%TO.N,/SPI1_CSS*%
X143310000Y-103640000D03*
%TO.P,J4,8,Pin_4*%
%TO.N,+3.3V*%
X145850000Y-103640000D03*
%TD*%
D18*
%TO.N,/STBY_1*%
X132950000Y-73500000D03*
X135600000Y-85150000D03*
%TO.N,/BIN1_2*%
X107700000Y-110850000D03*
%TO.N,+3.3V*%
X127250000Y-130900000D03*
%TO.N,/BIN2_2*%
X107750000Y-133450000D03*
X107750000Y-113850000D03*
%TO.N,VCC*%
X108750000Y-66250000D03*
X103475000Y-82925000D03*
%TO.N,/STBY_2*%
X121500000Y-126500000D03*
X123350000Y-106650000D03*
%TO.N,/BIN1_1*%
X118200000Y-81000000D03*
%TO.N,/NRF_MISO*%
X133500000Y-105530000D03*
%TD*%
D19*
%TO.N,/BIN1_1*%
X116830000Y-87720000D02*
X114800000Y-87720000D01*
X117550000Y-81650000D02*
X117550000Y-87000000D01*
X118200000Y-81000000D02*
X117550000Y-81650000D01*
X117550000Y-87000000D02*
X116830000Y-87720000D01*
%TO.N,/PWMA_1*%
X114800000Y-92800000D02*
X119300000Y-92800000D01*
X121850000Y-82650000D02*
X124350000Y-80150000D01*
X130250000Y-80150000D02*
X132250000Y-78150000D01*
X119300000Y-92800000D02*
X121850000Y-90250000D01*
X121850000Y-90250000D02*
X121850000Y-82650000D01*
X124350000Y-80150000D02*
X130250000Y-80150000D01*
%TO.N,/BIN2_1*%
X114800000Y-90260000D02*
X117890000Y-90260000D01*
X119350000Y-88800000D02*
X119350000Y-78350000D01*
X117890000Y-90260000D02*
X119350000Y-88800000D01*
X119350000Y-78350000D02*
X119550000Y-78150000D01*
%TO.N,/STBY_1*%
X135600000Y-91000000D02*
X131230000Y-95370000D01*
X131230000Y-95370000D02*
X129800000Y-95370000D01*
X126250000Y-73500000D02*
X124630000Y-75120000D01*
X124630000Y-75120000D02*
X124630000Y-78150000D01*
X132950000Y-73500000D02*
X126250000Y-73500000D01*
X135600000Y-85150000D02*
X135600000Y-91000000D01*
%TO.N,/AIN1_2*%
X115600000Y-105500000D02*
X119000000Y-108900000D01*
X119000000Y-133500000D02*
X121580000Y-136080000D01*
X119000000Y-108900000D02*
X119000000Y-133500000D01*
X114800000Y-105500000D02*
X115600000Y-105500000D01*
X121580000Y-136080000D02*
X121580000Y-138250000D01*
%TO.N,/NRF_IRQ*%
X135190000Y-110610000D02*
X138250000Y-107550000D01*
X138250000Y-106310000D02*
X138250000Y-103660000D01*
X138250000Y-107550000D02*
X138250000Y-106310000D01*
X138250000Y-103660000D02*
X138230000Y-103640000D01*
X129800000Y-110610000D02*
X135190000Y-110610000D01*
%TO.N,/BIN1_2*%
X106100000Y-135550000D02*
X111950000Y-141400000D01*
X106100000Y-112450000D02*
X106100000Y-135550000D01*
X111950000Y-141400000D02*
X126100000Y-141400000D01*
X107700000Y-110850000D02*
X106100000Y-112450000D01*
X126100000Y-141400000D02*
X126660000Y-140840000D01*
X126660000Y-140840000D02*
X126660000Y-138250000D01*
D20*
%TO.N,+3.3V*%
X128581000Y-132231000D02*
X131101000Y-132231000D01*
X143300000Y-111390000D02*
X145260000Y-111390000D01*
X138250000Y-125082000D02*
X138250000Y-111390000D01*
X131101000Y-132231000D02*
X138250000Y-125082000D01*
X127250000Y-130900000D02*
X128581000Y-132231000D01*
X145260000Y-111390000D02*
X145850000Y-110800000D01*
X138250000Y-111390000D02*
X143300000Y-111390000D01*
X145850000Y-110800000D02*
X145850000Y-103640000D01*
D19*
%TO.N,/PWMB_2*%
X120650000Y-107450000D02*
X120650000Y-101050000D01*
X124550000Y-132350000D02*
X124550000Y-111350000D01*
X127200000Y-135000000D02*
X124550000Y-132350000D01*
X120020000Y-100420000D02*
X114800000Y-100420000D01*
X129250000Y-135000000D02*
X127200000Y-135000000D01*
X131740000Y-137490000D02*
X129250000Y-135000000D01*
X131740000Y-138250000D02*
X131740000Y-137490000D01*
X124550000Y-111350000D02*
X120650000Y-107450000D01*
X120650000Y-101050000D02*
X120020000Y-100420000D01*
%TO.N,/PWMB_1*%
X116000000Y-80050000D02*
X117010000Y-79040000D01*
X111400000Y-94950000D02*
X111400000Y-81500000D01*
X111400000Y-81500000D02*
X112850000Y-80050000D01*
X117010000Y-79040000D02*
X117010000Y-78150000D01*
X112850000Y-80050000D02*
X116000000Y-80050000D01*
X114800000Y-95340000D02*
X111790000Y-95340000D01*
X111790000Y-95340000D02*
X111400000Y-94950000D01*
%TO.N,/BIN2_2*%
X107750000Y-113850000D02*
X107750000Y-133450000D01*
%TO.N,/NRF_CE*%
X143650000Y-96650000D02*
X143650000Y-100760000D01*
X134000000Y-95700000D02*
X142700000Y-95700000D01*
X143650000Y-100760000D02*
X143310000Y-101100000D01*
X129800000Y-97910000D02*
X131790000Y-97910000D01*
X142700000Y-95700000D02*
X143650000Y-96650000D01*
X131790000Y-97910000D02*
X134000000Y-95700000D01*
D20*
%TO.N,VCC*%
X136550000Y-64350000D02*
X134350000Y-62150000D01*
X128801000Y-60551000D02*
X113500000Y-60551000D01*
X116500000Y-148750000D02*
X116500000Y-154250000D01*
X111550000Y-143800000D02*
X116500000Y-148750000D01*
X134350000Y-62150000D02*
X132250000Y-62150000D01*
X103500000Y-138500000D02*
X108800000Y-143800000D01*
X113500000Y-60551000D02*
X108750000Y-65301000D01*
X108750000Y-65301000D02*
X108750000Y-66250000D01*
X129750000Y-62110000D02*
X129750000Y-61500000D01*
X136550000Y-82650000D02*
X136550000Y-64350000D01*
X140592500Y-86692500D02*
X136550000Y-82650000D01*
X136550000Y-82650000D02*
X129820000Y-82650000D01*
X143700000Y-86692500D02*
X140592500Y-86692500D01*
X129750000Y-61500000D02*
X128801000Y-60551000D01*
X129710000Y-62150000D02*
X129750000Y-62110000D01*
X103500000Y-82950000D02*
X103500000Y-138500000D01*
X108800000Y-143800000D02*
X111550000Y-143800000D01*
X103475000Y-82925000D02*
X103500000Y-82950000D01*
X129820000Y-82650000D02*
X129800000Y-82670000D01*
D19*
%TO.N,/AIN2_2*%
X114800000Y-108040000D02*
X116290000Y-108040000D01*
X117550000Y-109300000D02*
X117550000Y-133500000D01*
X116290000Y-108040000D02*
X117550000Y-109300000D01*
X119040000Y-134990000D02*
X119040000Y-138250000D01*
X117550000Y-133500000D02*
X119040000Y-134990000D01*
%TO.N,/STBY_2*%
X121450000Y-133700000D02*
X124120000Y-136370000D01*
X125570000Y-92830000D02*
X129800000Y-92830000D01*
X123350000Y-106650000D02*
X123350000Y-95050000D01*
X121450000Y-126550000D02*
X121450000Y-133700000D01*
X123350000Y-95050000D02*
X125570000Y-92830000D01*
X121500000Y-126500000D02*
X121450000Y-126550000D01*
X124120000Y-136370000D02*
X124120000Y-138250000D01*
%TO.N,/PWMA_2*%
X114800000Y-97880000D02*
X112120000Y-97880000D01*
X112120000Y-97880000D02*
X111400000Y-98600000D01*
X114450000Y-138250000D02*
X116500000Y-138250000D01*
X111400000Y-98600000D02*
X111400000Y-135200000D01*
X111400000Y-135200000D02*
X114450000Y-138250000D01*
%TO.N,/SPI1_CSS*%
X143300000Y-106310000D02*
X143300000Y-103650000D01*
X143300000Y-103650000D02*
X143310000Y-103640000D01*
%TO.N,/NRF_SCK*%
X129800000Y-108070000D02*
X133230000Y-108070000D01*
X134800000Y-106500000D02*
X134800000Y-98900000D01*
X133230000Y-108070000D02*
X134800000Y-106500000D01*
X139950000Y-97600000D02*
X140770000Y-98420000D01*
X136100000Y-97600000D02*
X139950000Y-97600000D01*
X140770000Y-98420000D02*
X140770000Y-101100000D01*
X134800000Y-98900000D02*
X136100000Y-97600000D01*
%TO.N,/NRF_MISO*%
X133500000Y-105530000D02*
X129800000Y-105530000D01*
D20*
%TO.N,/AO2_1*%
X110750000Y-68750000D02*
X106732500Y-72767500D01*
X106732500Y-72767500D02*
X106732500Y-73750000D01*
X120000000Y-68750000D02*
X110750000Y-68750000D01*
X122090000Y-62150000D02*
X122090000Y-66660000D01*
X122090000Y-66660000D02*
X120000000Y-68750000D01*
%TO.N,/AO1_1*%
X121000000Y-71500000D02*
X113250000Y-71500000D01*
X107500000Y-77250000D02*
X106732500Y-77250000D01*
X124630000Y-67870000D02*
X121000000Y-71500000D01*
X124630000Y-62150000D02*
X124630000Y-67870000D01*
X113250000Y-71500000D02*
X107500000Y-77250000D01*
%TO.N,/BO2_2*%
X130500000Y-147000000D02*
X143750000Y-147000000D01*
X129200000Y-154250000D02*
X129200000Y-148300000D01*
X129200000Y-148300000D02*
X130500000Y-147000000D01*
%TO.N,/BO1_2*%
X131740000Y-154250000D02*
X131740000Y-150860000D01*
X131740000Y-150860000D02*
X132100000Y-150500000D01*
X132100000Y-150500000D02*
X143750000Y-150500000D01*
%TD*%
%TA.AperFunction,Conductor*%
%TO.N,VCC*%
G36*
X119777951Y-152669685D02*
G01*
X119782021Y-152672415D01*
X120197109Y-152962976D01*
X120240742Y-153017547D01*
X120250000Y-153064561D01*
X120250000Y-154004525D01*
X120248473Y-154023923D01*
X120229500Y-154143713D01*
X120229500Y-154356286D01*
X120248473Y-154476075D01*
X120250000Y-154495473D01*
X120250000Y-155298638D01*
X120230315Y-155365677D01*
X120213681Y-155386319D01*
X119886319Y-155713681D01*
X119824996Y-155747166D01*
X119798638Y-155750000D01*
X115409598Y-155750000D01*
X115342559Y-155730315D01*
X115312770Y-155703462D01*
X114977172Y-155283965D01*
X114950664Y-155219319D01*
X114950000Y-155206503D01*
X114950000Y-153201362D01*
X114969685Y-153134323D01*
X114986319Y-153113681D01*
X115413681Y-152686319D01*
X115475004Y-152652834D01*
X115501362Y-152650000D01*
X119710912Y-152650000D01*
X119777951Y-152669685D01*
G37*
%TD.AperFunction*%
%TD*%
%TA.AperFunction,Conductor*%
%TO.N,VCC*%
G36*
X133410771Y-60669685D02*
G01*
X133437052Y-60692345D01*
X133719320Y-61014937D01*
X133748651Y-61078352D01*
X133750000Y-61096592D01*
X133750000Y-63258666D01*
X133730315Y-63325705D01*
X133725200Y-63333066D01*
X133487200Y-63650400D01*
X133431229Y-63692221D01*
X133388000Y-63700000D01*
X129105225Y-63700000D01*
X129038186Y-63680315D01*
X129013059Y-63658954D01*
X128631830Y-63235367D01*
X128601616Y-63172369D01*
X128600000Y-63152416D01*
X128600000Y-60798570D01*
X128604954Y-60781697D01*
X128604884Y-60764112D01*
X128614593Y-60748869D01*
X128619685Y-60731531D01*
X128633040Y-60719911D01*
X128642423Y-60705183D01*
X128672038Y-60685983D01*
X128725274Y-60661413D01*
X128777236Y-60650000D01*
X133343732Y-60650000D01*
X133410771Y-60669685D01*
G37*
%TD.AperFunction*%
%TD*%
M02*
