%TF.GenerationSoftware,KiCad,Pcbnew,9.0.3*%
%TF.CreationDate,2025-07-28T15:14:52+05:30*%
%TF.ProjectId,RC_CAR_TEST_PCB,52435f43-4152-45f5-9445-53545f504342,rev?*%
%TF.SameCoordinates,Original*%
%TF.FileFunction,Soldermask,Top*%
%TF.FilePolarity,Negative*%
%FSLAX46Y46*%
G04 Gerber Fmt 4.6, Leading zero omitted, Abs format (unit mm)*
G04 Created by KiCad (PCBNEW 9.0.3) date 2025-07-28 15:14:52*
%MOMM*%
%LPD*%
G01*
G04 APERTURE LIST*
G04 Aperture macros list*
%AMRoundRect*
0 Rectangle with rounded corners*
0 $1 Rounding radius*
0 $2 $3 $4 $5 $6 $7 $8 $9 X,Y pos of 4 corners*
0 Add a 4 corners polygon primitive as box body*
4,1,4,$2,$3,$4,$5,$6,$7,$8,$9,$2,$3,0*
0 Add four circle primitives for the rounded corners*
1,1,$1+$1,$2,$3*
1,1,$1+$1,$4,$5*
1,1,$1+$1,$6,$7*
1,1,$1+$1,$8,$9*
0 Add four rect primitives between the rounded corners*
20,1,$1+$1,$2,$3,$4,$5,0*
20,1,$1+$1,$4,$5,$6,$7,0*
20,1,$1+$1,$6,$7,$8,$9,0*
20,1,$1+$1,$8,$9,$2,$3,0*%
G04 Aperture macros list end*
%ADD10RoundRect,0.250001X-0.949999X0.949999X-0.949999X-0.949999X0.949999X-0.949999X0.949999X0.949999X0*%
%ADD11C,2.400000*%
%ADD12R,1.700000X1.700000*%
%ADD13C,1.700000*%
%ADD14C,1.400000*%
%ADD15RoundRect,0.250001X-1.099999X1.099999X-1.099999X-1.099999X1.099999X-1.099999X1.099999X1.099999X0*%
%ADD16C,2.700000*%
%ADD17RoundRect,0.250001X0.949999X-0.949999X0.949999X0.949999X-0.949999X0.949999X-0.949999X-0.949999X0*%
G04 APERTURE END LIST*
D10*
%TO.C,J6*%
X106732500Y-73750000D03*
D11*
X106732500Y-77250000D03*
%TD*%
D12*
%TO.C,J3*%
X116500000Y-154250000D03*
D13*
X119040000Y-154250000D03*
X121580000Y-154250000D03*
X124120000Y-154250000D03*
X126660000Y-154250000D03*
X129200000Y-154250000D03*
X131740000Y-154250000D03*
X134280000Y-154250000D03*
X134280000Y-138250000D03*
X131740000Y-138250000D03*
X129200000Y-138250000D03*
X126660000Y-138250000D03*
X124120000Y-138250000D03*
X121580000Y-138250000D03*
X119040000Y-138250000D03*
D12*
X116500000Y-138250000D03*
%TD*%
D14*
%TO.C,R1*%
X138250000Y-111390000D03*
X138250000Y-106310000D03*
%TD*%
D12*
%TO.C,J2*%
X132250000Y-62150000D03*
D13*
X129710000Y-62150000D03*
X127170000Y-62150000D03*
X124630000Y-62150000D03*
X122090000Y-62150000D03*
X119550000Y-62150000D03*
X117010000Y-62150000D03*
X114470000Y-62150000D03*
X114470000Y-78150000D03*
X117010000Y-78150000D03*
X119550000Y-78150000D03*
X122090000Y-78150000D03*
X124630000Y-78150000D03*
X127170000Y-78150000D03*
X129710000Y-78150000D03*
D12*
X132250000Y-78150000D03*
%TD*%
%TO.C,J1*%
X129800000Y-130930000D03*
D13*
X129800000Y-128390000D03*
X129800000Y-125850000D03*
X129800000Y-123310000D03*
X129800000Y-120770000D03*
X129800000Y-118230000D03*
X129800000Y-115690000D03*
X129800000Y-113150000D03*
X129800000Y-110610000D03*
X129800000Y-108070000D03*
X129800000Y-105530000D03*
X129800000Y-102990000D03*
X129800000Y-100450000D03*
X129800000Y-97910000D03*
X129800000Y-95370000D03*
X129800000Y-92830000D03*
X129800000Y-90290000D03*
X129800000Y-87750000D03*
X129800000Y-85210000D03*
X129800000Y-82670000D03*
X114800000Y-82640000D03*
X114800000Y-85180000D03*
X114800000Y-87720000D03*
X114800000Y-90260000D03*
X114800000Y-92800000D03*
X114800000Y-95340000D03*
X114800000Y-97880000D03*
X114800000Y-100420000D03*
X114800000Y-102960000D03*
X114800000Y-105500000D03*
X114800000Y-108040000D03*
X114800000Y-110580000D03*
X114800000Y-113120000D03*
X114800000Y-115660000D03*
X114800000Y-118200000D03*
X114800000Y-120740000D03*
X114800000Y-123280000D03*
X114800000Y-125820000D03*
X114800000Y-128360000D03*
D12*
X114800000Y-130900000D03*
%TD*%
D14*
%TO.C,R2*%
X143300000Y-111390000D03*
X143300000Y-106310000D03*
%TD*%
D15*
%TO.C,J5*%
X143700000Y-86692500D03*
D16*
X143700000Y-90652500D03*
%TD*%
D17*
%TO.C,J9*%
X143750000Y-150500000D03*
D11*
X143750000Y-147000000D03*
%TD*%
D10*
%TO.C,J7*%
X106482500Y-146750000D03*
D11*
X106482500Y-150250000D03*
%TD*%
D17*
%TO.C,J8*%
X143750000Y-77500000D03*
D11*
X143750000Y-74000000D03*
%TD*%
D12*
%TO.C,J4*%
X145850000Y-101100000D03*
D13*
X143310000Y-101100000D03*
X140770000Y-101100000D03*
X138230000Y-101100000D03*
X138230000Y-103640000D03*
X140770000Y-103640000D03*
X143310000Y-103640000D03*
X145850000Y-103640000D03*
%TD*%
M02*
