M48
; DRILL file {KiCad 9.0.3} date 2025-07-28T15:14:56+0530
; FORMAT={-:-/ absolute / metric / decimal}
; #@! TF.CreationDate,2025-07-28T15:14:56+05:30
; #@! TF.GenerationSoftware,Kicad,Pcbnew,9.0.3
; #@! TF.FileFunction,MixedPlating,1,2
FMAT,2
METRIC
; #@! TA.AperFunction,Plated,PTH,ViaDrill
T1C0.300
; #@! TA.AperFunction,Plated,PTH,ComponentDrill
T2C0.700
; #@! TA.AperFunction,Plated,PTH,ComponentDrill
T3C1.000
; #@! TA.AperFunction,Plated,PTH,ComponentDrill
T4C1.200
; #@! TA.AperFunction,Plated,PTH,ComponentDrill
T5C1.700
%
G90
G05
T1
X103.475Y-82.925
X107.7Y-110.85
X107.75Y-113.85
X107.75Y-133.45
X108.75Y-66.25
X118.2Y-81.0
X121.5Y-126.5
X123.35Y-106.65
X127.25Y-130.9
X132.95Y-73.5
X133.5Y-105.53
X135.6Y-85.15
T2
X138.25Y-106.31
X138.25Y-111.39
X143.3Y-106.31
X143.3Y-111.39
T3
X114.47Y-62.15
X114.47Y-78.15
X114.8Y-82.64
X114.8Y-85.18
X114.8Y-87.72
X114.8Y-90.26
X114.8Y-92.8
X114.8Y-95.34
X114.8Y-97.88
X114.8Y-100.42
X114.8Y-102.96
X114.8Y-105.5
X114.8Y-108.04
X114.8Y-110.58
X114.8Y-113.12
X114.8Y-115.66
X114.8Y-118.2
X114.8Y-120.74
X114.8Y-123.28
X114.8Y-125.82
X114.8Y-128.36
X114.8Y-130.9
X116.5Y-138.25
X116.5Y-154.25
X117.01Y-62.15
X117.01Y-78.15
X119.04Y-138.25
X119.04Y-154.25
X119.55Y-62.15
X119.55Y-78.15
X121.58Y-138.25
X121.58Y-154.25
X122.09Y-62.15
X122.09Y-78.15
X124.12Y-138.25
X124.12Y-154.25
X124.63Y-62.15
X124.63Y-78.15
X126.66Y-138.25
X126.66Y-154.25
X127.17Y-62.15
X127.17Y-78.15
X129.2Y-138.25
X129.2Y-154.25
X129.71Y-62.15
X129.71Y-78.15
X129.8Y-82.67
X129.8Y-85.21
X129.8Y-87.75
X129.8Y-90.29
X129.8Y-92.83
X129.8Y-95.37
X129.8Y-97.91
X129.8Y-100.45
X129.8Y-102.99
X129.8Y-105.53
X129.8Y-108.07
X129.8Y-110.61
X129.8Y-113.15
X129.8Y-115.69
X129.8Y-118.23
X129.8Y-120.77
X129.8Y-123.31
X129.8Y-125.85
X129.8Y-128.39
X129.8Y-130.93
X131.74Y-138.25
X131.74Y-154.25
X132.25Y-62.15
X132.25Y-78.15
X134.28Y-138.25
X134.28Y-154.25
X138.23Y-101.1
X138.23Y-103.64
X140.77Y-101.1
X140.77Y-103.64
X143.31Y-101.1
X143.31Y-103.64
X145.85Y-101.1
X145.85Y-103.64
T4
X106.483Y-146.75
X106.483Y-150.25
X106.733Y-73.75
X106.733Y-77.25
X143.75Y-74.0
X143.75Y-77.5
X143.75Y-147.0
X143.75Y-150.5
T5
X143.7Y-86.692
X143.7Y-90.652
M30
