%TF.GenerationSoftware,KiCad,Pcbnew,9.0.3*%
%TF.CreationDate,2025-07-28T15:14:52+05:30*%
%TF.ProjectId,RC_CAR_TEST_PCB,52435f43-4152-45f5-9445-53545f504342,rev?*%
%TF.SameCoordinates,Original*%
%TF.FileFunction,Legend,Top*%
%TF.FilePolarity,Positive*%
%FSLAX46Y46*%
G04 Gerber Fmt 4.6, Leading zero omitted, Abs format (unit mm)*
G04 Created by KiCad (PCBNEW 9.0.3) date 2025-07-28 15:14:52*
%MOMM*%
%LPD*%
G01*
G04 APERTURE LIST*
%ADD10C,0.160000*%
%ADD11C,0.120000*%
%ADD12C,0.100000*%
G04 APERTURE END LIST*
D10*
X107666666Y-69954299D02*
X107666666Y-70668584D01*
X107666666Y-70668584D02*
X107619047Y-70811441D01*
X107619047Y-70811441D02*
X107523809Y-70906680D01*
X107523809Y-70906680D02*
X107380952Y-70954299D01*
X107380952Y-70954299D02*
X107285714Y-70954299D01*
X108571428Y-69954299D02*
X108380952Y-69954299D01*
X108380952Y-69954299D02*
X108285714Y-70001918D01*
X108285714Y-70001918D02*
X108238095Y-70049537D01*
X108238095Y-70049537D02*
X108142857Y-70192394D01*
X108142857Y-70192394D02*
X108095238Y-70382870D01*
X108095238Y-70382870D02*
X108095238Y-70763822D01*
X108095238Y-70763822D02*
X108142857Y-70859060D01*
X108142857Y-70859060D02*
X108190476Y-70906680D01*
X108190476Y-70906680D02*
X108285714Y-70954299D01*
X108285714Y-70954299D02*
X108476190Y-70954299D01*
X108476190Y-70954299D02*
X108571428Y-70906680D01*
X108571428Y-70906680D02*
X108619047Y-70859060D01*
X108619047Y-70859060D02*
X108666666Y-70763822D01*
X108666666Y-70763822D02*
X108666666Y-70525727D01*
X108666666Y-70525727D02*
X108619047Y-70430489D01*
X108619047Y-70430489D02*
X108571428Y-70382870D01*
X108571428Y-70382870D02*
X108476190Y-70335251D01*
X108476190Y-70335251D02*
X108285714Y-70335251D01*
X108285714Y-70335251D02*
X108190476Y-70382870D01*
X108190476Y-70382870D02*
X108142857Y-70430489D01*
X108142857Y-70430489D02*
X108095238Y-70525727D01*
X113184299Y-154583333D02*
X113898584Y-154583333D01*
X113898584Y-154583333D02*
X114041441Y-154630952D01*
X114041441Y-154630952D02*
X114136680Y-154726190D01*
X114136680Y-154726190D02*
X114184299Y-154869047D01*
X114184299Y-154869047D02*
X114184299Y-154964285D01*
X113184299Y-154202380D02*
X113184299Y-153583333D01*
X113184299Y-153583333D02*
X113565251Y-153916666D01*
X113565251Y-153916666D02*
X113565251Y-153773809D01*
X113565251Y-153773809D02*
X113612870Y-153678571D01*
X113612870Y-153678571D02*
X113660489Y-153630952D01*
X113660489Y-153630952D02*
X113755727Y-153583333D01*
X113755727Y-153583333D02*
X113993822Y-153583333D01*
X113993822Y-153583333D02*
X114089060Y-153630952D01*
X114089060Y-153630952D02*
X114136680Y-153678571D01*
X114136680Y-153678571D02*
X114184299Y-153773809D01*
X114184299Y-153773809D02*
X114184299Y-154059523D01*
X114184299Y-154059523D02*
X114136680Y-154154761D01*
X114136680Y-154154761D02*
X114089060Y-154202380D01*
X136784299Y-109016666D02*
X136308108Y-109349999D01*
X136784299Y-109588094D02*
X135784299Y-109588094D01*
X135784299Y-109588094D02*
X135784299Y-109207142D01*
X135784299Y-109207142D02*
X135831918Y-109111904D01*
X135831918Y-109111904D02*
X135879537Y-109064285D01*
X135879537Y-109064285D02*
X135974775Y-109016666D01*
X135974775Y-109016666D02*
X136117632Y-109016666D01*
X136117632Y-109016666D02*
X136212870Y-109064285D01*
X136212870Y-109064285D02*
X136260489Y-109111904D01*
X136260489Y-109111904D02*
X136308108Y-109207142D01*
X136308108Y-109207142D02*
X136308108Y-109588094D01*
X136784299Y-108064285D02*
X136784299Y-108635713D01*
X136784299Y-108349999D02*
X135784299Y-108349999D01*
X135784299Y-108349999D02*
X135927156Y-108445237D01*
X135927156Y-108445237D02*
X136022394Y-108540475D01*
X136022394Y-108540475D02*
X136070013Y-108635713D01*
X134654299Y-62483333D02*
X135368584Y-62483333D01*
X135368584Y-62483333D02*
X135511441Y-62530952D01*
X135511441Y-62530952D02*
X135606680Y-62626190D01*
X135606680Y-62626190D02*
X135654299Y-62769047D01*
X135654299Y-62769047D02*
X135654299Y-62864285D01*
X134749537Y-62054761D02*
X134701918Y-62007142D01*
X134701918Y-62007142D02*
X134654299Y-61911904D01*
X134654299Y-61911904D02*
X134654299Y-61673809D01*
X134654299Y-61673809D02*
X134701918Y-61578571D01*
X134701918Y-61578571D02*
X134749537Y-61530952D01*
X134749537Y-61530952D02*
X134844775Y-61483333D01*
X134844775Y-61483333D02*
X134940013Y-61483333D01*
X134940013Y-61483333D02*
X135082870Y-61530952D01*
X135082870Y-61530952D02*
X135654299Y-62102380D01*
X135654299Y-62102380D02*
X135654299Y-61483333D01*
X129466666Y-133154299D02*
X129466666Y-133868584D01*
X129466666Y-133868584D02*
X129419047Y-134011441D01*
X129419047Y-134011441D02*
X129323809Y-134106680D01*
X129323809Y-134106680D02*
X129180952Y-134154299D01*
X129180952Y-134154299D02*
X129085714Y-134154299D01*
X130466666Y-134154299D02*
X129895238Y-134154299D01*
X130180952Y-134154299D02*
X130180952Y-133154299D01*
X130180952Y-133154299D02*
X130085714Y-133297156D01*
X130085714Y-133297156D02*
X129990476Y-133392394D01*
X129990476Y-133392394D02*
X129895238Y-133440013D01*
X125004260Y-132898320D02*
X124861403Y-132850700D01*
X124861403Y-132850700D02*
X124623308Y-132850700D01*
X124623308Y-132850700D02*
X124528070Y-132898320D01*
X124528070Y-132898320D02*
X124480451Y-132945939D01*
X124480451Y-132945939D02*
X124432832Y-133041177D01*
X124432832Y-133041177D02*
X124432832Y-133136415D01*
X124432832Y-133136415D02*
X124480451Y-133231653D01*
X124480451Y-133231653D02*
X124528070Y-133279272D01*
X124528070Y-133279272D02*
X124623308Y-133326891D01*
X124623308Y-133326891D02*
X124813784Y-133374510D01*
X124813784Y-133374510D02*
X124909022Y-133422129D01*
X124909022Y-133422129D02*
X124956641Y-133469748D01*
X124956641Y-133469748D02*
X125004260Y-133564986D01*
X125004260Y-133564986D02*
X125004260Y-133660224D01*
X125004260Y-133660224D02*
X124956641Y-133755462D01*
X124956641Y-133755462D02*
X124909022Y-133803081D01*
X124909022Y-133803081D02*
X124813784Y-133850700D01*
X124813784Y-133850700D02*
X124575689Y-133850700D01*
X124575689Y-133850700D02*
X124432832Y-133803081D01*
X124099498Y-133850700D02*
X123861403Y-132850700D01*
X123861403Y-132850700D02*
X123670927Y-133564986D01*
X123670927Y-133564986D02*
X123480451Y-132850700D01*
X123480451Y-132850700D02*
X123242356Y-133850700D01*
X122861403Y-132850700D02*
X122861403Y-133850700D01*
X122861403Y-133850700D02*
X122623308Y-133850700D01*
X122623308Y-133850700D02*
X122480451Y-133803081D01*
X122480451Y-133803081D02*
X122385213Y-133707843D01*
X122385213Y-133707843D02*
X122337594Y-133612605D01*
X122337594Y-133612605D02*
X122289975Y-133422129D01*
X122289975Y-133422129D02*
X122289975Y-133279272D01*
X122289975Y-133279272D02*
X122337594Y-133088796D01*
X122337594Y-133088796D02*
X122385213Y-132993558D01*
X122385213Y-132993558D02*
X122480451Y-132898320D01*
X122480451Y-132898320D02*
X122623308Y-132850700D01*
X122623308Y-132850700D02*
X122861403Y-132850700D01*
X121147117Y-132898320D02*
X121051879Y-132850700D01*
X121051879Y-132850700D02*
X120861403Y-132850700D01*
X120861403Y-132850700D02*
X120766165Y-132898320D01*
X120766165Y-132898320D02*
X120718546Y-132993558D01*
X120718546Y-132993558D02*
X120718546Y-133041177D01*
X120718546Y-133041177D02*
X120766165Y-133136415D01*
X120766165Y-133136415D02*
X120861403Y-133184034D01*
X120861403Y-133184034D02*
X121004260Y-133184034D01*
X121004260Y-133184034D02*
X121099498Y-133231653D01*
X121099498Y-133231653D02*
X121147117Y-133326891D01*
X121147117Y-133326891D02*
X121147117Y-133374510D01*
X121147117Y-133374510D02*
X121099498Y-133469748D01*
X121099498Y-133469748D02*
X121004260Y-133517367D01*
X121004260Y-133517367D02*
X120861403Y-133517367D01*
X120861403Y-133517367D02*
X120766165Y-133469748D01*
X120289974Y-132850700D02*
X120289974Y-133517367D01*
X120289974Y-133850700D02*
X120337593Y-133803081D01*
X120337593Y-133803081D02*
X120289974Y-133755462D01*
X120289974Y-133755462D02*
X120242355Y-133803081D01*
X120242355Y-133803081D02*
X120289974Y-133850700D01*
X120289974Y-133850700D02*
X120289974Y-133755462D01*
X119385213Y-132850700D02*
X119385213Y-133850700D01*
X119385213Y-132898320D02*
X119480451Y-132850700D01*
X119480451Y-132850700D02*
X119670927Y-132850700D01*
X119670927Y-132850700D02*
X119766165Y-132898320D01*
X119766165Y-132898320D02*
X119813784Y-132945939D01*
X119813784Y-132945939D02*
X119861403Y-133041177D01*
X119861403Y-133041177D02*
X119861403Y-133326891D01*
X119861403Y-133326891D02*
X119813784Y-133422129D01*
X119813784Y-133422129D02*
X119766165Y-133469748D01*
X119766165Y-133469748D02*
X119670927Y-133517367D01*
X119670927Y-133517367D02*
X119480451Y-133517367D01*
X119480451Y-133517367D02*
X119385213Y-133469748D01*
X118528070Y-132898320D02*
X118623308Y-132850700D01*
X118623308Y-132850700D02*
X118813784Y-132850700D01*
X118813784Y-132850700D02*
X118909022Y-132898320D01*
X118909022Y-132898320D02*
X118956641Y-132993558D01*
X118956641Y-132993558D02*
X118956641Y-133374510D01*
X118956641Y-133374510D02*
X118909022Y-133469748D01*
X118909022Y-133469748D02*
X118813784Y-133517367D01*
X118813784Y-133517367D02*
X118623308Y-133517367D01*
X118623308Y-133517367D02*
X118528070Y-133469748D01*
X118528070Y-133469748D02*
X118480451Y-133374510D01*
X118480451Y-133374510D02*
X118480451Y-133279272D01*
X118480451Y-133279272D02*
X118956641Y-133184034D01*
X141834299Y-109016666D02*
X141358108Y-109349999D01*
X141834299Y-109588094D02*
X140834299Y-109588094D01*
X140834299Y-109588094D02*
X140834299Y-109207142D01*
X140834299Y-109207142D02*
X140881918Y-109111904D01*
X140881918Y-109111904D02*
X140929537Y-109064285D01*
X140929537Y-109064285D02*
X141024775Y-109016666D01*
X141024775Y-109016666D02*
X141167632Y-109016666D01*
X141167632Y-109016666D02*
X141262870Y-109064285D01*
X141262870Y-109064285D02*
X141310489Y-109111904D01*
X141310489Y-109111904D02*
X141358108Y-109207142D01*
X141358108Y-109207142D02*
X141358108Y-109588094D01*
X140929537Y-108635713D02*
X140881918Y-108588094D01*
X140881918Y-108588094D02*
X140834299Y-108492856D01*
X140834299Y-108492856D02*
X140834299Y-108254761D01*
X140834299Y-108254761D02*
X140881918Y-108159523D01*
X140881918Y-108159523D02*
X140929537Y-108111904D01*
X140929537Y-108111904D02*
X141024775Y-108064285D01*
X141024775Y-108064285D02*
X141120013Y-108064285D01*
X141120013Y-108064285D02*
X141262870Y-108111904D01*
X141262870Y-108111904D02*
X141834299Y-108683332D01*
X141834299Y-108683332D02*
X141834299Y-108064285D01*
X139016666Y-93304299D02*
X139016666Y-94018584D01*
X139016666Y-94018584D02*
X138969047Y-94161441D01*
X138969047Y-94161441D02*
X138873809Y-94256680D01*
X138873809Y-94256680D02*
X138730952Y-94304299D01*
X138730952Y-94304299D02*
X138635714Y-94304299D01*
X139969047Y-93304299D02*
X139492857Y-93304299D01*
X139492857Y-93304299D02*
X139445238Y-93780489D01*
X139445238Y-93780489D02*
X139492857Y-93732870D01*
X139492857Y-93732870D02*
X139588095Y-93685251D01*
X139588095Y-93685251D02*
X139826190Y-93685251D01*
X139826190Y-93685251D02*
X139921428Y-93732870D01*
X139921428Y-93732870D02*
X139969047Y-93780489D01*
X139969047Y-93780489D02*
X140016666Y-93875727D01*
X140016666Y-93875727D02*
X140016666Y-94113822D01*
X140016666Y-94113822D02*
X139969047Y-94209060D01*
X139969047Y-94209060D02*
X139921428Y-94256680D01*
X139921428Y-94256680D02*
X139826190Y-94304299D01*
X139826190Y-94304299D02*
X139588095Y-94304299D01*
X139588095Y-94304299D02*
X139492857Y-94256680D01*
X139492857Y-94256680D02*
X139445238Y-94209060D01*
X146166666Y-142954299D02*
X146166666Y-143668584D01*
X146166666Y-143668584D02*
X146119047Y-143811441D01*
X146119047Y-143811441D02*
X146023809Y-143906680D01*
X146023809Y-143906680D02*
X145880952Y-143954299D01*
X145880952Y-143954299D02*
X145785714Y-143954299D01*
X146690476Y-143954299D02*
X146880952Y-143954299D01*
X146880952Y-143954299D02*
X146976190Y-143906680D01*
X146976190Y-143906680D02*
X147023809Y-143859060D01*
X147023809Y-143859060D02*
X147119047Y-143716203D01*
X147119047Y-143716203D02*
X147166666Y-143525727D01*
X147166666Y-143525727D02*
X147166666Y-143144775D01*
X147166666Y-143144775D02*
X147119047Y-143049537D01*
X147119047Y-143049537D02*
X147071428Y-143001918D01*
X147071428Y-143001918D02*
X146976190Y-142954299D01*
X146976190Y-142954299D02*
X146785714Y-142954299D01*
X146785714Y-142954299D02*
X146690476Y-143001918D01*
X146690476Y-143001918D02*
X146642857Y-143049537D01*
X146642857Y-143049537D02*
X146595238Y-143144775D01*
X146595238Y-143144775D02*
X146595238Y-143382870D01*
X146595238Y-143382870D02*
X146642857Y-143478108D01*
X146642857Y-143478108D02*
X146690476Y-143525727D01*
X146690476Y-143525727D02*
X146785714Y-143573346D01*
X146785714Y-143573346D02*
X146976190Y-143573346D01*
X146976190Y-143573346D02*
X147071428Y-143525727D01*
X147071428Y-143525727D02*
X147119047Y-143478108D01*
X147119047Y-143478108D02*
X147166666Y-143382870D01*
X103416666Y-142954299D02*
X103416666Y-143668584D01*
X103416666Y-143668584D02*
X103369047Y-143811441D01*
X103369047Y-143811441D02*
X103273809Y-143906680D01*
X103273809Y-143906680D02*
X103130952Y-143954299D01*
X103130952Y-143954299D02*
X103035714Y-143954299D01*
X103797619Y-142954299D02*
X104464285Y-142954299D01*
X104464285Y-142954299D02*
X104035714Y-143954299D01*
X140416666Y-69954299D02*
X140416666Y-70668584D01*
X140416666Y-70668584D02*
X140369047Y-70811441D01*
X140369047Y-70811441D02*
X140273809Y-70906680D01*
X140273809Y-70906680D02*
X140130952Y-70954299D01*
X140130952Y-70954299D02*
X140035714Y-70954299D01*
X141035714Y-70382870D02*
X140940476Y-70335251D01*
X140940476Y-70335251D02*
X140892857Y-70287632D01*
X140892857Y-70287632D02*
X140845238Y-70192394D01*
X140845238Y-70192394D02*
X140845238Y-70144775D01*
X140845238Y-70144775D02*
X140892857Y-70049537D01*
X140892857Y-70049537D02*
X140940476Y-70001918D01*
X140940476Y-70001918D02*
X141035714Y-69954299D01*
X141035714Y-69954299D02*
X141226190Y-69954299D01*
X141226190Y-69954299D02*
X141321428Y-70001918D01*
X141321428Y-70001918D02*
X141369047Y-70049537D01*
X141369047Y-70049537D02*
X141416666Y-70144775D01*
X141416666Y-70144775D02*
X141416666Y-70192394D01*
X141416666Y-70192394D02*
X141369047Y-70287632D01*
X141369047Y-70287632D02*
X141321428Y-70335251D01*
X141321428Y-70335251D02*
X141226190Y-70382870D01*
X141226190Y-70382870D02*
X141035714Y-70382870D01*
X141035714Y-70382870D02*
X140940476Y-70430489D01*
X140940476Y-70430489D02*
X140892857Y-70478108D01*
X140892857Y-70478108D02*
X140845238Y-70573346D01*
X140845238Y-70573346D02*
X140845238Y-70763822D01*
X140845238Y-70763822D02*
X140892857Y-70859060D01*
X140892857Y-70859060D02*
X140940476Y-70906680D01*
X140940476Y-70906680D02*
X141035714Y-70954299D01*
X141035714Y-70954299D02*
X141226190Y-70954299D01*
X141226190Y-70954299D02*
X141321428Y-70906680D01*
X141321428Y-70906680D02*
X141369047Y-70859060D01*
X141369047Y-70859060D02*
X141416666Y-70763822D01*
X141416666Y-70763822D02*
X141416666Y-70573346D01*
X141416666Y-70573346D02*
X141369047Y-70478108D01*
X141369047Y-70478108D02*
X141321428Y-70430489D01*
X141321428Y-70430489D02*
X141226190Y-70382870D01*
X146166666Y-97704299D02*
X146166666Y-98418584D01*
X146166666Y-98418584D02*
X146119047Y-98561441D01*
X146119047Y-98561441D02*
X146023809Y-98656680D01*
X146023809Y-98656680D02*
X145880952Y-98704299D01*
X145880952Y-98704299D02*
X145785714Y-98704299D01*
X147071428Y-98037632D02*
X147071428Y-98704299D01*
X146833333Y-97656680D02*
X146595238Y-98370965D01*
X146595238Y-98370965D02*
X147214285Y-98370965D01*
D11*
%TO.C,J6*%
X103012500Y-71530000D02*
X110252500Y-71530000D01*
X103012500Y-73450000D02*
X103012500Y-71530000D01*
X103012500Y-79470000D02*
X103012500Y-74050000D01*
X104632500Y-71530000D02*
X104632500Y-79470000D01*
X110252500Y-71530000D02*
X110252500Y-79470000D01*
X110252500Y-79470000D02*
X103012500Y-79470000D01*
X103012500Y-73750000D02*
X102402500Y-74190000D01*
X102402500Y-73310000D01*
X103012500Y-73750000D01*
G36*
X103012500Y-73750000D02*
G01*
X102402500Y-74190000D01*
X102402500Y-73310000D01*
X103012500Y-73750000D01*
G37*
%TO.C,J3*%
X115170000Y-136920000D02*
X116500000Y-136920000D01*
X115170000Y-138250000D02*
X115170000Y-136920000D01*
X115170000Y-152920000D02*
X116500000Y-152920000D01*
X115170000Y-154250000D02*
X115170000Y-152920000D01*
X117770000Y-136920000D02*
X135610000Y-136920000D01*
X117770000Y-139580000D02*
X117770000Y-136920000D01*
X117770000Y-139580000D02*
X135610000Y-139580000D01*
X117770000Y-152920000D02*
X135610000Y-152920000D01*
X117770000Y-155580000D02*
X117770000Y-152920000D01*
X117770000Y-155580000D02*
X135610000Y-155580000D01*
X135610000Y-139580000D02*
X135610000Y-136920000D01*
X135610000Y-155580000D02*
X135610000Y-152920000D01*
D12*
X114500000Y-156250000D02*
X136500000Y-156250000D01*
X136500000Y-136250000D01*
X114500000Y-136250000D01*
X114500000Y-156250000D01*
D11*
%TO.C,R1*%
X137330000Y-110770000D02*
X137330000Y-106930000D01*
X139170000Y-110770000D02*
X139170000Y-106930000D01*
%TO.C,J2*%
X113140000Y-60820000D02*
X113140000Y-63480000D01*
X113140000Y-76820000D02*
X113140000Y-79480000D01*
X130980000Y-60820000D02*
X113140000Y-60820000D01*
X130980000Y-60820000D02*
X130980000Y-63480000D01*
X130980000Y-63480000D02*
X113140000Y-63480000D01*
X130980000Y-76820000D02*
X113140000Y-76820000D01*
X130980000Y-76820000D02*
X130980000Y-79480000D01*
X130980000Y-79480000D02*
X113140000Y-79480000D01*
X133580000Y-62150000D02*
X133580000Y-63480000D01*
X133580000Y-63480000D02*
X132250000Y-63480000D01*
X133580000Y-78150000D02*
X133580000Y-79480000D01*
X133580000Y-79480000D02*
X132250000Y-79480000D01*
D12*
X134250000Y-60150000D02*
X112250000Y-60150000D01*
X112250000Y-80150000D01*
X134250000Y-80150000D01*
X134250000Y-60150000D01*
D11*
%TO.C,J1*%
X113470000Y-129630000D02*
X113470000Y-81310000D01*
X113470000Y-132230000D02*
X113470000Y-130900000D01*
X114800000Y-132230000D02*
X113470000Y-132230000D01*
X116130000Y-81310000D02*
X113470000Y-81310000D01*
X116130000Y-129630000D02*
X113470000Y-129630000D01*
X116130000Y-129630000D02*
X116130000Y-81310000D01*
X128470000Y-129660000D02*
X128470000Y-81340000D01*
X128470000Y-132260000D02*
X128470000Y-130930000D01*
X129800000Y-132260000D02*
X128470000Y-132260000D01*
X131130000Y-81340000D02*
X128470000Y-81340000D01*
X131130000Y-129660000D02*
X128470000Y-129660000D01*
X131130000Y-129660000D02*
X131130000Y-81340000D01*
D12*
X132300000Y-135720000D02*
X112300000Y-135720000D01*
X112300000Y-80720000D01*
X132300000Y-80720000D01*
X132300000Y-135720000D01*
D11*
%TO.C,R2*%
X142380000Y-110770000D02*
X142380000Y-106930000D01*
X144220000Y-110770000D02*
X144220000Y-106930000D01*
%TO.C,J5*%
X138790000Y-84632500D02*
X145810000Y-84632500D01*
X138790000Y-92712500D02*
X138790000Y-84632500D01*
X143400000Y-83832500D02*
X144000000Y-83832500D01*
X143700000Y-84432500D02*
X143400000Y-83832500D01*
X144000000Y-83832500D02*
X143700000Y-84432500D01*
X145810000Y-84632500D02*
X145810000Y-85832500D01*
X145810000Y-85832500D02*
X147510000Y-85832500D01*
X145810000Y-91512500D02*
X145810000Y-92712500D01*
X145810000Y-92712500D02*
X138790000Y-92712500D01*
X147510000Y-85832500D02*
X147510000Y-91512500D01*
X147510000Y-91512500D02*
X145810000Y-91512500D01*
%TO.C,J9*%
X140230000Y-144780000D02*
X147470000Y-144780000D01*
X140230000Y-152720000D02*
X140230000Y-144780000D01*
X145850000Y-152720000D02*
X145850000Y-144780000D01*
X147470000Y-144780000D02*
X147470000Y-150200000D01*
X147470000Y-150800000D02*
X147470000Y-152720000D01*
X147470000Y-152720000D02*
X140230000Y-152720000D01*
X148080000Y-150940000D02*
X147470000Y-150500000D01*
X148080000Y-150060000D01*
X148080000Y-150940000D01*
G36*
X148080000Y-150940000D02*
G01*
X147470000Y-150500000D01*
X148080000Y-150060000D01*
X148080000Y-150940000D01*
G37*
%TO.C,J7*%
X102762500Y-144530000D02*
X110002500Y-144530000D01*
X102762500Y-146450000D02*
X102762500Y-144530000D01*
X102762500Y-152470000D02*
X102762500Y-147050000D01*
X104382500Y-144530000D02*
X104382500Y-152470000D01*
X110002500Y-144530000D02*
X110002500Y-152470000D01*
X110002500Y-152470000D02*
X102762500Y-152470000D01*
X102762500Y-146750000D02*
X102152500Y-147190000D01*
X102152500Y-146310000D01*
X102762500Y-146750000D01*
G36*
X102762500Y-146750000D02*
G01*
X102152500Y-147190000D01*
X102152500Y-146310000D01*
X102762500Y-146750000D01*
G37*
%TO.C,J8*%
X140230000Y-71780000D02*
X147470000Y-71780000D01*
X140230000Y-79720000D02*
X140230000Y-71780000D01*
X145850000Y-79720000D02*
X145850000Y-71780000D01*
X147470000Y-71780000D02*
X147470000Y-77200000D01*
X147470000Y-77800000D02*
X147470000Y-79720000D01*
X147470000Y-79720000D02*
X140230000Y-79720000D01*
X148080000Y-77940000D02*
X147470000Y-77500000D01*
X148080000Y-77060000D01*
X148080000Y-77940000D01*
G36*
X148080000Y-77940000D02*
G01*
X147470000Y-77500000D01*
X148080000Y-77060000D01*
X148080000Y-77940000D01*
G37*
%TO.C,J4*%
X136900000Y-104970000D02*
X136900000Y-99770000D01*
X144580000Y-99770000D02*
X136900000Y-99770000D01*
X144580000Y-102370000D02*
X144580000Y-99770000D01*
X147180000Y-99770000D02*
X145850000Y-99770000D01*
X147180000Y-101100000D02*
X147180000Y-99770000D01*
X147180000Y-102370000D02*
X144580000Y-102370000D01*
X147180000Y-104970000D02*
X136900000Y-104970000D01*
X147180000Y-104970000D02*
X147180000Y-102370000D01*
D12*
X147850000Y-99100000D02*
X132850000Y-99100000D01*
X132850000Y-127100000D01*
X147850000Y-127100000D01*
X147850000Y-99100000D01*
%TD*%
M02*
